<?xml version="1.0" encoding="UTF-8"?>
<svg id="Layer_1" xmlns="http://www.w3.org/2000/svg" version="1.1" viewBox="0 0 14 14">
  <!-- Generator: Adobe Illustrator 30.0.0, SVG Export Plug-In . SVG Version: 2.1.1 Build 123)  -->
  <defs>
    <style>
      .st0 {
        fill: #fff;
      }
    </style>
  </defs>
  <path class="st0" d="M11.67,3.58h-1.83v-.67c0-.44-.18-.87-.49-1.18-.31-.31-.73-.49-1.18-.49h-2.33c-.45,0-.86.17-1.18.49-.31.31-.49.74-.49,1.18v.67h-1.83c-.92,0-1.67.75-1.67,1.67v5.83c0,.92.75,1.67,1.67,1.67h9.33c.92,0,1.67-.75,1.67-1.67v-5.83c0-.92-.75-1.67-1.67-1.67ZM5.17,2.92c0-.18.07-.35.2-.47s.3-.2.47-.2h2.33c.18,0,.34.07.47.2s.2.3.2.47v.67h-3.67v-.67ZM8.83,4.58v7.17h-3.67v-7.17h3.67ZM1.67,11.08v-5.83c0-.37.3-.67.67-.67h1.83v7.17h-1.83c-.37,0-.67-.3-.67-.67ZM12.33,11.08c0,.37-.3.67-.67.67h-1.83v-7.17h1.83c.37,0,.67.3.67.67v5.83Z"/>
</svg>