<svg width="90" height="37" viewBox="0 0 90 37" fill="none" xmlns="http://www.w3.org/2000/svg">
<g clip-path="url(#clip0_6_15)">
<path d="M90 37H-0.0258102V0H90.0129L90 37Z" fill="#0058AB"/>
<path d="M1.72903 18.5C1.72903 27.4432 19.8581 34.8719 44.9935 34.8719C70.129 34.8719 88.2452 27.4562 88.2452 18.5C88.2452 9.54376 70.1161 2.12809 44.9806 2.12809C19.8452 2.12809 1.72903 9.55681 1.72903 18.5Z" fill="#FBD914"/>
<path d="M42.4387 23.7484C42.7226 24.1662 43.0322 24.5579 43.3935 24.9104H33.6516C33.6516 24.5187 33.2903 23.7223 32.8645 23.0956C32.4387 22.4689 30.2193 19.0353 30.2193 19.0353V23.7484C30.2193 24.1401 30.2193 24.5187 30.4129 24.9104H22.2968C22.4903 24.5187 22.4903 24.1401 22.4903 23.7484V12.5466C22.4903 12.1549 22.4903 11.7763 22.2968 11.3846H30.4129C30.2193 11.7763 30.2193 12.1549 30.2193 12.5466V17.4294C30.2193 17.4294 32.8129 14.0219 33.4064 13.2124C33.8581 12.6119 34.4129 11.7632 34.4129 11.3716H42.8774C42.2968 11.7632 41.6516 12.4682 41.1226 13.121C40.6581 13.6955 38.0258 16.9464 38.0258 16.9464C38.0258 16.9464 41.9226 22.9781 42.4387 23.7484ZM44.9806 12.5466V23.7484C44.9806 24.1401 44.9806 24.5187 44.7871 24.9104H60.4516V21.1634C60.0645 21.3592 59.6903 21.3592 59.3032 21.3592H52.7097V19.5836H59.0452V16.7375H52.7097V14.9619H59.3032C59.6903 14.9619 60.0645 14.9619 60.4516 15.1447V11.3977H44.8C44.9806 11.7763 44.9806 12.1549 44.9806 12.5466ZM82.1677 23.7484C82.2968 24.1793 82.5161 24.5709 82.8 24.9104H74.3097C74.3484 24.5187 74.2064 24.1401 74.0516 23.7484C74.0516 23.7484 73.9226 23.4351 73.7419 22.9781L73.6645 22.7823H68.7742L68.6968 22.9781C68.6968 22.9781 68.5548 23.3567 68.4258 23.7484C68.2968 24.1401 68.1548 24.5187 68.2064 24.9104H61.5097C61.7806 24.5709 61.9871 24.1793 62.1161 23.7484C62.3355 23.1348 65.8193 13.4213 66.129 12.5466C66.271 12.1549 66.4129 11.7763 66.3613 11.3846H77.6774C77.5742 11.7763 77.7806 12.1549 77.9226 12.5466C78.2581 13.4083 81.8839 22.9912 82.1677 23.7484ZM72.5935 19.9231C71.9742 18.2911 71.471 16.9333 71.4064 16.7897C71.3032 16.5025 71.2129 16.2022 71.1484 15.9019C71.0968 16.2022 71.0064 16.5025 70.9161 16.7897C70.8774 16.9203 70.3742 18.2911 69.7935 19.9231H72.5935ZM18.4516 11.3846H9.6258C9.81935 11.7763 9.81935 12.1549 9.81935 12.5466V23.7484C9.81935 24.1401 9.81935 24.5187 9.6258 24.9104H18.4516C18.2581 24.5187 18.2581 24.1401 18.2581 23.7484V12.5466C18.2581 12.1549 18.2581 11.7632 18.4516 11.3846ZM79.4581 12.4552C79.4193 11.5021 80.1548 10.7057 81.0968 10.6796C81.1355 10.6796 81.1742 10.6796 81.2129 10.6796C82.1677 10.6666 82.9548 11.4368 82.9677 12.3899C82.9677 12.416 82.9677 12.4291 82.9677 12.4552C82.9935 13.4344 82.2323 14.2569 81.2516 14.283C80.2839 14.3091 79.471 13.5388 79.4452 12.5466C79.4581 12.5205 79.4581 12.4813 79.4581 12.4552ZM79.8064 12.4552C79.8064 13.2385 80.4258 13.8783 81.2129 13.8913C81.9871 13.8913 82.6194 13.2646 82.6323 12.4682C82.6323 11.6849 82.0129 11.0452 81.2258 11.0321C80.4774 11.006 79.8452 11.5935 79.8193 12.3507C79.8064 12.3899 79.8064 12.416 79.8064 12.4552ZM80.8645 13.5127H80.5548V11.3846H81.3419C81.7161 11.3977 82 11.698 82 12.0766C82 12.3377 81.8581 12.5727 81.6258 12.7032L82.0774 13.5258H81.729L81.3161 12.7685H80.8645V13.5127ZM80.8645 12.4552H81.2903C81.4968 12.4682 81.6774 12.3116 81.6774 12.1027C81.6903 11.8938 81.5355 11.711 81.329 11.711C81.3161 11.711 81.3032 11.711 81.2903 11.711H80.8645V12.4552Z" fill="#0058AB"/>
</g>
<defs>
<clipPath id="clip0_6_15">
<rect width="90" height="37" fill="white"/>
</clipPath>
</defs>
</svg>
