<?xml version="1.0" encoding="UTF-8"?>
<svg id="Layer_1" xmlns="http://www.w3.org/2000/svg" version="1.1" viewBox="0 0 14 14">
  <!-- Generator: Adobe Illustrator 30.0.0, SVG Export Plug-In . SVG Version: 2.1.1 Build 123)  -->
  <defs>
    <style>
      .st0 {
        fill: #fff;
      }
    </style>
  </defs>
  <path class="st0" d="M11.08,12.75h-2.33c-.28,0-.5-.22-.5-.5s.22-.5.5-.5h2.33c.18,0,.35-.07.47-.2s.2-.3.2-.47V2.92c0-.18-.07-.35-.2-.47s-.3-.2-.47-.2h-2.33c-.28,0-.5-.22-.5-.5s.22-.5.5-.5h2.33c.45,0,.86.17,1.18.49.31.31.49.74.49,1.18v8.17c0,.45-.17.86-.49,1.18s-.73.49-1.18.49Z"/>
  <path class="st0" d="M9.21,7.19c.05-.12.05-.26,0-.38-.03-.06-.06-.12-.11-.16l-2.92-2.92c-.2-.2-.51-.2-.71,0s-.2.51,0,.71l2.06,2.06H1.75c-.28,0-.5.22-.5.5s.22.5.5.5h5.79l-2.06,2.06c-.2.2-.2.51,0,.71.1.1.23.15.35.15s.26-.05.35-.15l2.92-2.92s.08-.1.11-.16Z"/>
</svg>