<?xml version="1.0" encoding="UTF-8"?>
<svg id="Layer_1" xmlns="http://www.w3.org/2000/svg" version="1.1" viewBox="0 0 14 14">
  <!-- Generator: Adobe Illustrator 30.0.0, SVG Export Plug-In . SVG Version: 2.1.1 Build 123)  -->
  <defs>
    <style>
      .st0 {
        fill: #fff;
      }
    </style>
  </defs>
  <path class="st0" d="M11.07,1.77C9.98.68,8.54.08,7,.08s-2.98.6-4.07,1.68-1.68,2.53-1.68,4.07c0,4.3,5.25,7.85,5.47,8,.08.06.18.08.28.08s.19-.03.28-.08c.22-.15,5.47-3.7,5.47-8,0-1.54-.6-2.98-1.68-4.07ZM7,12.8c-1.05-.78-4.75-3.73-4.75-6.97,0-1.27.49-2.46,1.39-3.36s2.09-1.39,3.36-1.39,2.46.49,3.36,1.39c.9.9,1.39,2.09,1.39,3.36,0,3.24-3.7,6.19-4.75,6.97Z"/>
  <path class="st0" d="M7,3.58c-1.24,0-2.25,1.01-2.25,2.25s1.01,2.25,2.25,2.25,2.25-1.01,2.25-2.25-1.01-2.25-2.25-2.25ZM7,7.08c-.69,0-1.25-.56-1.25-1.25s.56-1.25,1.25-1.25,1.25.56,1.25,1.25-.56,1.25-1.25,1.25Z"/>
</svg>