<?xml version="1.0" encoding="UTF-8"?>
<svg id="Layer_1" xmlns="http://www.w3.org/2000/svg" version="1.1" viewBox="0 0 20 20">
  <!-- Generator: Adobe Illustrator 30.0.0, SVG Export Plug-In . SVG Version: 2.1.1 Build 123)  -->
  <defs>
    <style>
      .st0 {
        fill: #fff;
      }
    </style>
  </defs>
  <path class="st0" d="M6.25,17.28v-6.87c0-.28-.16-.54-.41-.65-.47-.19-.87-.49-1.2-.91-.42-.53-.64-1.15-.64-1.85V2.72c0-.4.32-.72.72-.72h.06c.4,0,.72.32.72.72v4.28h.75V2.72c0-.4.32-.72.72-.72h.06c.4,0,.72.32.72.72v4.28h.75V2.72c0-.4.32-.72.72-.72h.06c.4,0,.72.32.72.72v4.28c0,.71-.21,1.32-.64,1.85-.33.41-.73.72-1.2.91-.26.11-.41.37-.41.65v6.87c0,.4-.32.72-.72.72h-.06c-.4,0-.72-.32-.72-.72ZM14.5,17.28v-5.56c0-.4-.32-.72-.72-.72h-1.06c-.4,0-.72-.32-.72-.72v-3.97c0-1.3.48-2.6,1.48-3.43.49-.41,1.05-.67,1.66-.8.44-.09.86.26.86.71v14.48c0,.4-.32.72-.72.72h-.06c-.4,0-.72-.32-.72-.72Z"/>
</svg>